<?xml version="1.0" encoding="UTF-8"?><svg id="Layer_2" xmlns="http://www.w3.org/2000/svg" xmlns:xlink="http://www.w3.org/1999/xlink" viewBox="0 0 354.42 479.78"><defs><style>.cls-1{stroke:#4b1e18;stroke-miterlimit:10;}.cls-1,.cls-2{fill:none;}.cls-1,.cls-3,.cls-4{opacity:0;}.cls-5{fill:url(#linear-gradient);}.cls-6{fill:#fff;}.cls-7{fill:#b68e82;}.cls-8{fill:#b69289;}.cls-9{fill:#a9807f;}.cls-10{fill:#bf9b87;}.cls-11,.cls-3{fill:#1d1d1b;}.cls-12{fill:#5a4745;}.cls-13{fill:#716060;}.cls-2{stroke:#000;stroke-linecap:round;stroke-linejoin:round;stroke-width:0px;}</style><linearGradient id="linear-gradient" x1="22.26" y1="110.32" x2="354.42" y2="110.32" gradientTransform="matrix(1, 0, 0, 1, 0, 0)" gradientUnits="userSpaceOnUse"><stop offset="0" stop-color="#fff"/><stop offset="1" stop-color="#32a8d9" stop-opacity=".31"/></linearGradient></defs><g id="Layer_1-2"><g><path class="cls-11" d="M286.46,78.98c-9.44,.26-18.85,1.31-28.2,2.63-.01-.11-.02-.23-.04-.34,0,.12,0,.23,0,.35-.32,.04-.63,.09-.95,.13,.32,.04,.63,.07,.95,.11-.15,9.15-.49,18.3-.21,27.44,.4,7.93,1.47,15.81,3.07,23.58-.59-17.02-.58-34.1-2.78-51.02,10.03,1.15,20.14,1.96,30.24,1.77,9.35-.32,18.66-1.41,27.91-2.82-9.95-1.11-19.96-1.97-29.98-1.84Z"/><path class="cls-11" d="M326.68,83.02c1.93,15.54,2.74,27.17,3.45,41.88,.03,.67,.06,1.38,.09,2.03,.03-.36,.06-.72,.09-1.08,1.35-14.39-.11-28.84-3.63-42.83Z"/><path class="cls-11" d="M295.15,129.35c-12.15,1.86-24.05,5-35.97,7.93,24.35,.89,48.55-3.1,72-9.47-12.02-.33-24.1-.1-36.02,1.54Z"/><path class="cls-11" d="M279.7,91.14c-2.46-.14-4.97-.6-7.42-.22-1.23,.17-2.16,1.02-3.29,1.44-.84,.16-1.77,.31-2.61,.05-.65-.26-1.18-.75-1.78-1.09,.58,.53,1.06,1.17,1.71,1.61,.95,.5,2.16,.64,3.2,.39,.86-.25,1.63-.77,2.56-.8,2.62-.14,5.21,.59,7.84,.54,3.77,.03,7.53-.27,11.27-.77-3.82-.48-7.65-.86-11.48-1.15Z"/><path class="cls-11" d="M275.46,105.2c3.63,.17,7.3,.31,10.94,.12,3.86-.55,7.57-1.87,11.16-3.35-7.4,.86-14.89,1.29-22.1,3.23Z"/><path class="cls-11" d="M301.76,113.34c-3.2,.92-6.08,1.52-9.55,2.07,2.95,.53,5.94,.66,8.87-.08,3.72-.65,7.44-1.42,11.03-2.6-3.45-.07-6.95-.04-10.35,.6Z"/><path class="cls-11" d="M257.68,72.74c2.68-4.55-.32-11.17-3.95-14.37-2.16-1.7-3.51-1.38-5.13,.13-.3-.71-.6-1.42-.91-2.12,.18,.81,.4,1.61,.6,2.41-.15,.15-.29,.3-.45,.46,.16-.09,.32-.19,.49-.3,1.5,5.67,3.6,11.18,5.99,16.54-.16,.14-.31,.28-.48,.41,.18-.09,.35-.19,.53-.29,.88,1.96,1.79,3.91,2.73,5.84-.61-2.1-1.28-4.19-1.99-6.26,1.01-.64,1.92-1.43,2.55-2.45Zm-2.66,2.12c-1.89-5.48-4.08-10.86-6.32-16.13,.69-.42,1.42-.78,2.24-.68,2.22,.7,3.62,2.84,4.68,4.79,1.72,3.08,3.35,7.11,.93,10.26-.45,.63-.97,1.22-1.52,1.76Z"/><path class="cls-11" d="M267.12,64.83c-1.6,.06-3.86,.5-5.23-.49,.58-.54,.62-1.57,.14-2.24-.19-.31-.6-.33-.91-.2-.84,.59-.7,1.93-.29,2.75,1.14,2.18,4.01,1.46,5.87,.77,.61-.22,1.21-.47,1.8-.74-.46,.05-.92,.11-1.38,.14Zm-5.45-2.09c.61,.32,.44,1,.08,1.48-.24-.21-.46-.46-.62-.78-.17-.37,.16-.74,.55-.71Z"/><path class="cls-11" d="M270.67,59.57c.66,2.09,1.4,4.17,1.81,6.33,.12,.74,.23,1.54-.44,2.06-1.19,1.04-2.85,.06-3.72-.94-.34-.35-.63-.74-.92-1.13,.7,1.49,1.48,3.37,3.17,3.92,.87,.31,1.79-.05,2.29-.81,1.74-2.78-.9-6.87-2.2-9.43Z"/><path class="cls-11" d="M275.58,61.85c1.18-.45,2.28-1.07,3.3-1.8,1.09,.58,2.17,1.15,3.25,1.73-.72-.76-1.5-1.46-2.32-2.12-4.62-3.85-5.19-1.65-4.49,2.29l-.03,.02h.03c.08,.45,.18,.93,.29,1.44-.01-.52-.03-1.03-.04-1.55Zm0-2.62c.47-.69,1.33-.25,1.9,.07,.45,.24,.9,.48,1.35,.72-1.16,.44-2.25,1.03-3.26,1.75-.02-.85-.03-1.69,0-2.54Z"/><path class="cls-11" d="M267.8,50.26c-3.37,.54-3.35,9.48,0,10,3.37-.54,3.35-9.48,0-10Z"/><path class="cls-11" d="M297.44,59.69c-.36,1.22-1.13,3.28-2.54,1.69-.81-1.29-1.19-2.84-1.89-4.2,.59,1.81,.67,3.9,1.75,5.5,2.73,2.83,3.58-3.26,4.16-4.97,.48-1.92,.88-3.86,1.25-5.8-.93,2.59-1.84,5.19-2.74,7.79Z"/><path class="cls-11" d="M306.21,62c-1.06,.55-2.23-.09-2.39-1.26-.18-1.18,.17-2.38,.2-3.57-.33,1.54-1.04,3.24-.26,4.75,.3,.57,.99,.99,1.63,.77,.64-.17,1.14-.63,1.59-1.08-.25,.15-.5,.29-.78,.4Z"/><path class="cls-11" d="M307.14,67.8c.58-3.75,1.16-7.49,1.51-11.27-1.05,3.65-1.58,7.51-1.51,11.27Z"/><path class="cls-11" d="M258.75,61.21c.93-2.11,1.58-4.33,2.03-6.59-.93,2.11-1.57,4.33-2.03,6.59Z"/><path class="cls-11" d="M274.18,52.7c.68,.55,1.44,1,2.26,1.28-.68-.54-1.43-1-2.26-1.28Z"/><path class="cls-11" d="M99.81,57.07c-.43-2.17-1.52-3.15-2.74-3.27-1.09-.84-2.45-.75-3.48,.14-.19,.08-.37,.19-.55,.31-.14,0-.28,0-.41,0,.1,.02,.19,.06,.29,.09-.15,.12-.29,.26-.43,.41-.45,.23-.84,.54-1.18,.93-.09-.02-.18-.04-.27-.06,1.15-2.27,2.92-4.2,5.16-4.7-2.87-.09-5.08,1.95-6.48,4.54-.99-.05-2.14-.02-1.07,.21,.27,.09,.54,.19,.81,.3-.94,1.92-1.46,4.07-1.47,5.87-.03,.43-.02,.85,.01,1.27-.15,1.39,.04,2.82,.55,4.11,.44,1.48,1.66,2.63,3.08,2.93,.03,.02,.05,.05,.09,.07,1.03,.54,2.08,.47,3.02,.06,.97-.04,1.99-.31,3.06-.87,4.55-2.34,4.98-8.66,2.02-12.32Zm.03,5.44c-.06,.6-.64,1.32-1.41,1.93,.06-.32,.11-.65,.14-.99,.59-.73,.96-1.58,1.17-2.5,.12,.54,.16,1.06,.09,1.55Z"/><path class="cls-11" d="M115.41,79.83c-2.2-2.26-4.69-4.23-6.9-6.48,3.44,5.99,8.46,11,13.73,15.1-2.11-3-4.29-5.97-6.83-8.62Z"/><path class="cls-11" d="M129.03,89.53c-.19-.98-.41-1.95-.71-2.9,.15,1.84,.08,3.69,0,5.54-.1,.45-.01,1.08-.37,1.41-.32,.23-.7,.34-1.09,.25-1.2-.15-2.39-.37-3.59-.54-.64-.09-1.29-.2-1.9-.39,.02-.02,.03-.04,.04-.05,2.28-3.08,4.49-6.21,6.9-9.19-2.63,1.88-5.01,4.08-7.2,6.46-.5,.53-1.09,1.03-1.31,1.75-.37,1.13-.43,2.61,.39,3.56,.95,.8,2.3,.93,3.49,1.1,1.27,.09,2.58,.39,3.85,.16,2.79-1.07,1.79-4.85,1.52-7.15Z"/><path class="cls-11" d="M151.29,107.51c-.15-.72-.39-1.4-.75-1.99,.2-.02,.4-.03,.6-.06-.26-.06-.51-.12-.77-.19-.29-.4-.63-.76-1.05-1.04-1.09-.32-2.34-.19-3.55,.25-.19,.02-.37,.04-.56,.08-.05,.01-.1,.04-.16,.05-1.22-.17-2.46-.12-3.64,.29-.61,.2,.05,.05,.31,.09,.44,.01,.88,.1,1.31,.21-.93,.46-1.69,1.34-2.21,2.3-.92,1.15-1.56,2.53-1.75,3.99-.33,3.26,1.06,7.49,4.61,8.27,6.12,1.05,11.35-7.23,7.61-12.26Z"/><path class="cls-11" d="M138.01,125.27c-12.17,4.21-22.15,12.94-31.78,20.86-1.25-1.63-2.85-3.08-4.18-4.5,1.12,1.73,2.24,3.44,3.26,5.25-.49,.4-.98,.8-1.46,1.19-.66,.51-1.03,.69,.07,.22,.58-.26,1.16-.54,1.74-.8,.33,.61,.66,1.22,.96,1.85l.03,.05c-.05,.08-.12,.17-.22,.22-1.42,1-3.03,1.71-4.61,2.43-1.24,.61-2.17,.02-2.48-1.27-.32-2.31,0-4.19,.35-6.44-.21,.55-.4,1.1-.56,1.66-.62,2.44-1.34,5.31,.11,7.6,.41,.68,1.11,1.26,1.95,1.12,2.77-.55,7.21-2.21,6.68-5.71-.25-.72-.61-1.4-1.04-2.05,4.77-2.25,9.38-4.82,13.75-7.78,6.54-4.59,11.15-9.57,17.44-13.9Z"/><path class="cls-11" d="M84.61,158.32c-.15-.1-.31-.19-.47-.29,.58-.32,1.16-.6,1.74-.85-.82,.05-1.64,.2-2.45,.43-.11-.06-.22-.12-.33-.19,.07,.07,.14,.15,.22,.22-.08,.02-.15,.05-.23,.08-.52-.24-1.12-.35-1.82-.25-5.37,1.33-8.65,8.76-6.38,13.74,.17,.38,.76,1.22,1,1.53,.21,.34,.47,.63,.82,.84,.44,.27,.87,.13,1.29-.04,1.15,.23,2.55-.14,4.22-.92,5.85-2.78,8.93-10.4,2.38-14.33Z"/><path class="cls-11" d="M146.64,181.05c-.13-1.88-2.07-2.52-3.66-1.96-1.15,.24-2.46,.79-2.77,2.05-.4,1.44-.1,2.92,.12,4.38-.92-.15-1.84-.31-2.76-.45-5.06-.81-10.19-1.41-15.32-1.11-4.79,.1-9.58,1.05-14.35,.92,3.27,1.36,6.91,1.68,10.39,2.24,7.38,1.12,14.84,.58,22.19-.46,.1,.54,.04,1.19,.44,1.58,.09,.06,.21,.03,.27-.04,.37-.45,.28-1.09,.27-1.68,.28-.04,.57-.08,.85-.12,.59-.08,1.18-.17,1.78-.26-.86-.13-1.71-.28-2.57-.42,.16-1.3,.22-2.66,.72-3.88-.45,.72-.75,1.53-.99,2.37-.03-.43-.05-.8-.07-1.04-.02-.35-.05-.58,.04-.83,.62-.61,1.94-1,2.92-1.23,.54-.08,1.42,.02,1.62,.6,.27,1.77-.21,3.6-.7,5.3-.14,.46-.52,1.24,.01,.31,1.05-1.89,1.82-4.09,1.54-6.27Z"/><path class="cls-11" d="M165.03,181.85c.23-1.44,.17-2.87-.23-3.93-.13-.34-.3-.67-.52-.96,.13,.32,.23,.64,.29,.97,.12,.74,.09,1.5-.06,2.25-.02-.03-.05-.05-.07-.07-.06-1.37-.36-2.73-.89-3.95-.99-2.5-3.52-3.41-5.92-2.77-1.94,.18-3.69,1.66-4.63,3.4-1.61,2.96-1.91,6.81-.3,9.84,.08,.15,.17,.29,.26,.43-.13,.23-.26,.46-.39,.69-.53,.86,.14,.06,.58-.4,.73,.99,1.77,1.6,2.99,1.33,.61,.05,1.25-.07,1.87-.33,.96,.06,1.98-.19,2.92-.71,1.15-.26,2.09-1.09,2.79-2.2,.92-.99,1.42-2.25,1.3-3.57Z"/><path class="cls-11" d="M140.73,153.04c-2.13-4.85-4.85-9.42-7.77-13.83,2.02,5.92,4.2,11.84,7.38,17.24,1.45,2.33,2.76,5.18,5.44,6.29-2.65-2.61-3.44-6.46-5.05-9.7Z"/><path class="cls-11" d="M158.92,159.3c-1.81-9.7-2.64-19.62-5.96-28.99,.77,8.38,1.54,16.96,4.34,24.93-.05-.07-.12-.16-.22-.28-1.67-2.33-2.72-4.17-4.19-6.42-2.26-3.58-5.07-6.79-8.21-9.63-.06-.44-.12-.88-.2-1.33-.03,.34-.06,.7-.09,1.07-.17-.15-.34-.31-.51-.46,.16,.28,.32,.56,.48,.84-.59,6.91-1.31,17.24,.43,22.17,.1-6.98,.96-13.65,0-21.41,3.05,5.32,5.96,10.17,10.87,14.4,.38,.29,1.53,1.23,1.69,1.22,.47,1.31,.98,2.61,1.57,3.89Z"/><path class="cls-11" d="M162.25,143.65c1.27-.55,2.37-1.37,3.37-2.3,.78,1.24,1.59,2.54,2.41,3.88,1.76,2.82,3.57,5.6,5.48,8.32-1.75-4.65-3.48-9.31-5.46-13.86-1.79-3.77-3.48-7.68-6.21-10.88-.62-.56-1.01-1.58-1.88-1.74-1.63,.44-2.53,2.58-2.45,4.42,.77,7.47,3.36,16.04,7.36,23.26-1.26-4.24-2.74-10.59-3.18-12.98-.4-2.61-.77-5.23-1.11-7.85,.84,1,1.64,2.04,2.34,3.15,.74,1.15,1.55,2.44,2.41,3.81-1.16,.76-2.19,1.71-3.09,2.76Z"/><path class="cls-11" d="M179.42,137.35c2.85,2.55,5.85,4.92,8.92,7.2-2.52-3.28-4.82-6.72-7.27-10.04-1.39-2.06-3.25-3.93-4.24-5.99-.06-.17-.08-.21-.14-.44,0-.02,0-.08-.02-.22-.29-2.15-.6-4.35-1.37-6.38-.43-.86-1.2-1.99-2.18-2.18-2.01,.66-2.66,3.23-2.83,5.13-.41,4.63,.66,9.27,2.17,13.63,.71,1.68,.95,3.85,2.53,4.96,1.42,.85,1.87-1.44,1.75-2.46-.3-1.52-.82-2.96-1.44-4.38-.34-1.41-.7-3.02-.99-4.59,.06,.15,.12,.31,.2,.46,1.05,2.23,3.14,3.67,4.92,5.3Z"/><path class="cls-11" d="M201.65,110.32c1.46,6.78,3.49,13.48,6.82,19.59-1.46-6.79-3.37-13.52-6.82-19.59Z"/><path class="cls-11" d="M195.59,96.83c-3.37,.54-3.35,9.48,0,10,3.37-.54,3.35-9.48,0-10Z"/><path class="cls-11" d="M206.29,108.1c2.05,6.59,4.36,13.21,8.38,18.89-2.13-6.57-4.29-13.23-8.38-18.89Z"/><path class="cls-11" d="M271.94,164.34c-7.49,.66-15,1.26-22.53,1.44-4.19-.02-8.47,.56-12.59-.44-.92-.19-3.42-.94-5.23-2.2-.24-.18-.38-.28-.47-.35-.06-.07-.12-.14-.17-.2-.75-1.49-1.39-3.17-2.94-4-.65-.36-1.31-.58-1.96-.71,1.89-2.01,3.6-4.14,4.06-6.9,.36-2.83-.11-6.67-2.85-8.17-2.04-.71-4.17,.25-6.18,.65-2.28,.72-4.53,1.52-6.78,2.32,6.1-4.35,12.51-8.43,17.25-14.23,.82-1.93,.91-4.72-.62-6.3-.28-.36-.76-.32-1.18-.39-.78-.19-1.55-.08-2.3,.18l-.1,.05c-3.45-8.88-7.06-17.76-12.75-25.48,2.96,9.06,6.69,18.03,12.74,25.49-.07,.04-.15,.08-.22,.11-3.14-3.03-5.76-6.55-8.86-9.62-3.67-3.57-6.78-6.2-10.92-9.12,5.07,7.58,11.22,14.95,19.7,18.78-7.4,3.76-14.75,7.67-22.02,11.74-.1-.25-.19-.51-.28-.76l.11,.07c-.05-.05-.1-.1-.15-.15-3.32-8.81-7-17.78-12.11-26.23,2.56,8.04,5.34,16.09,9.48,23.45-5.69-5.98-11.84-11.92-19.76-14.48-.08-.16-.15-.32-.23-.48,.03,.15,.06,.29,.09,.43-.76-.24-1.52-.46-2.32-.64,.88,.62,1.74,1.27,2.59,1.93,1.41,6.43,3.53,12.75,7.08,18.34-1.78-6.04-3.76-12.04-6.37-17.77,5.73,4.51,11.01,9.6,17.44,13.14,.87,.52,1.75,1.03,2.63,1.54,.4,.65,.81,1.3,1.23,1.94-5.6,3.15-11.16,6.38-16.62,9.74-4.14,2.52-8.26,5.06-12.12,8-1.67,1.36-3.76,2.46-4.64,4.52,0,.02-.01,.06,.01,.07,.18,.01,.36,.02,.54,.03-1.57-.2,2.34-2.66,2.83-2.87,3.84-2.27,7.84-4.26,11.91-6.08,6.57-3.12,14.17-6.44,21.54-9.62-3.89,2.7-7.82,5.51-9.31,10.26-.49,2.08-.55,4.79,1.08,6.38,.64,.62,2.1,.48,2.98,.68,2.62,.03,5.07-1.17,7.55-1.89,4.35-1.25,7.82-2.75,11.29-3.75-.22,.26-.44,.52-.66,.77-1.46,2.15-3.41,4.28-3.88,6.9-.18,1.76-.08,4.03,1.47,5.17,.71,.24,1.4,.53,2.13,.69,1.89,.19,3.09-.68,3.68-.63,.36-.11,1.58,.07,2.02,.13,.41,.12,.81,.29,1.17,.53,.04,.05,.07,.08,.13,.15h0c.49,.88,.93,1.81,1.63,2.54,1.13,1.07,2.62,1.66,4.11,2.06,4.69,1.46,9.58,.32,14.25-.63,6.39-1.11,12.67-2.73,18.95-4.3,2.51-.66,5.02-1.32,7.51-2.02-.68,.07-1.36,.14-2.04,.2Z"/><path class="cls-11" d="M237.87,114.07c-1.68,1.82-4.3,1.26-5.56-.73-1.31-2.05-1.76-4.79-2.27-6.98-.53-2.8-1.25-6.14-1.51-9.17-.15-1.97-.29-4.12,.8-5.86-1.1,.87-1.49,2.27-1.74,3.59-.6,3.22-.43,6.51-.12,9.75,.4,4.35,2.16,15.47,8.58,12.97,2.25-1.21,3.03-3.92,3.43-6.27-.37,.99-.86,1.95-1.6,2.71Z"/><path class="cls-11" d="M241.78,114.29c-1.28-4.31-2.87-8.57-5.41-12.3,1.28-1.11,2.43-2.39,3.48-3.73,.15-.18,.29-.35,.43-.53-3.06,1.6-5.48,4.15-7.72,6.73,1.35-.6,2.55-1.41,3.65-2.34,1.36,4.36,2.89,8.18,5.57,12.17Z"/><path class="cls-11" d="M191.18,50.24c-14.36-.53-28.77-.47-43.11,.62-15.18,1.38-30.27,3.8-45.16,7.08,16.17-.14,32.37-.28,48.48-1.85,9.95-1.05,19.85-2.48,29.73-4.04,3.7-.58,7.4-1.19,11.11-1.76-.35-.01-.7-.03-1.05-.04Z"/><path class="cls-11" d="M209.25,42.06c-.69-.42-1.55-.37-2.31-.22-1.49,.36-3,.73-4.4,1.35-3.46,1.71-7.41,3.32-9.53,6.72-.9,1.77-.5,4.21,1.11,5.44,.71,.78,2.21,1.72,3.05,.65,.59-.98,.6-2.18,.56-3.3-.01-1.16-.09-2.31-.2-3.46,2.41-1.37,5.08-2.36,7.65-3.3,1.13-.27,2.33-.92,3.51-.6,.09,.1,.16,.17,.22,.24-2.14,2.69-4.47,5.24-6.71,7.85-1.99,2.24-3.99,4.48-6.19,6.53,1.67-1.06,3.25-2.26,4.79-3.5,2.55-2.15,5.14-4.27,7.46-6.67,.93-.9,2.01-1.77,2.38-3.07,.45-1.63-.03-3.6-1.38-4.67Zm-12.21,11.01c-.07,.57-.06,1.75-.92,1.47-.98-.31-1.67-1.32-2.18-2.15-.21-.37,.16-.62,.55-1.05,.84-.72,1.76-1.35,2.72-1.91-.02,1.22-.06,2.43-.16,3.64Z"/><path class="cls-11" d="M234.2,42.67c-.19-.82-.51-1.59-.99-2.23-.07-.08-.15-.14-.22-.2-.09-.11-.19-.21-.29-.31-.2-.52-.45-.99-.75-1.38-.92-.94-1.76-1.14-2.47-.84-1.75-.32-3.66,1.11-4.24,4.2-.06,0-.12,0-.18,0-.59-.02-.27,.06,.15,.14-.01,.09-.04,.16-.05,.25-.14,1.44-.1,3.41,.59,4.87-.07,1.09,.01,2.18,.33,3.24,.84,3.03,3.69,4.09,5.74,1.39,.46-.59,.83-1.45,1.05-2.39,.13-.15,.25-.31,.35-.49,.53-.79,.87-1.95,.99-3.2,.15-.3,.24-.63,.26-.96,.1-.7,.03-1.48-.29-2.11Z"/><path class="cls-5" d="M23.38,10.21s66.75,16.61,139.37,12.96C235.36,19.5,320.1,7.42,342.55,0c0,0,13.1,175.23,11.78,192.37,0,0-85.43,28.27-177.06,28.27s-147.39-14.6-152.33-20.02S23.38,10.21,23.38,10.21Z"/><path class="cls-3" d="M19.78,372.94c1.25,2.68,1.52,5.45,1.77,8.39,.16,1.63,.33,2.63,.27,4.17,0,.2-.04,.66,0,.69,.13-.5,.27-1.01,.36-1.52,.5-4-.03-8.36-2.4-11.72Z"/><path class="cls-2" d="M58.53,258.17s-.02,.01-.03,.02"/><path class="cls-13" d="M25.36,407.24c1.01,2.58,2.11,5.4,2.11,8.24,0,1.77,.2,3.52,.19,5.29,0,2.38-.07,4.77,.02,7.15,.13,3.57,.24,7.22-.02,10.79-.12,1.68-.17,3.35-.22,5.03-.06,2.18-.27,4.34-.27,6.53-.02,4.06,.23,8.13,.05,12.18-.15,3.48,.12,6.96,.4,10.43,.15,1.88,.19,3.85,.68,5.69,.19,.73,.65,.61,1.36,.6,.82-.02,1.6-.28,2.42-.31,1.15-.04,2.31-.15,3.46-.17,1.38-.03,2.87,.22,4.23,.47,1.77,.32,3.56,.42,5.36,.53,1.07,.07,2.27,.2,3.33-.08,.52-.14,1.3-.29,1.55-.85,.31-.7-.38-1.65-.57-2.3-.53-1.85-1.11-3.72-1.42-5.62-.25-1.58-.56-3.15-.73-4.75-.24-2.18-.18-4.52-.12-6.71,.05-1.9,.49-3.75,.59-5.65,.12-2.35,0-4.65,.22-7,.19-1.97,.1-3.94,.18-5.91,.07-1.84,.33-3.68,.52-5.51s.54-3.54,.73-5.32c.15-1.43,.19-2.87,.41-4.29,.28-1.8,.49-3.67,.9-5.45,.45-1.99,.77-4.11,1.7-5.94,.5-1,1.92-2.42,2.67-.75,.7,1.56,.53,3.59,.43,5.25-.22,3.58-.4,7.28,.06,10.84,.21,1.62,.27,3.23,.36,4.86,.11,1.95,.35,3.89,.49,5.84,.29,4.13,.4,8.26,.59,12.39,.11,2.32,.21,4.64,.33,6.96,.14,2.7,.11,5.39,.2,8.09,.06,1.96,.13,3.92,.12,5.88,0,1.61-.13,3.31,.02,4.92,.06,.64,.25,.69,.91,.67,1.03-.03,1.84-.21,2.87-.09s1.97,.06,2.97,.09,1.96,.11,2.94,.11c1.68,0,3.35-.01,5-.33,.63-.12,1.21-.15,1.84-.14,.73,.01,1.71,.27,2.2-.48,.43-.65,.18-1.57,.04-2.26-.25-1.26-.53-2.53-.6-3.82-.08-1.56,0-3.12-.02-4.67-.02-3.67-.28-7.33-.29-11,0-1.76,.23-3.45,.38-5.21,.24-2.78,.54-5.56,.74-8.35,.31-4.31,.13-8.67,.13-12.99,0-7.63,.49-15.24,.72-22.87,.04-1.25,.11-2.5,.13-3.76,.02-.81,.29-2.43-.29-3.06-.61-.67-1.76,.23-2.31,.57-1.72,1.05-3.08,2.21-5.08,2.72-2.53,.65-5.19,1.01-7.77,1.43-3.15,.52-6.29,1.12-9.49,1.14-2.27,.01-4.55,.03-6.81-.11-2.8-.17-5.6-.33-8.4-.29s-5.66,.32-8.43-.19c-.88-.16-1.96-.51-2.86-.38-1.01,.14-1.19,1.25-1.15,2.12,.02,.41,.16,.78,.27,1.17,.09,.31,.37,.63,.42,.93-.17-.71-.04-1.79-.49-2.38,.13,.62,.51,1.28,.76,1.85,.08,.18,.09,.37-.67-1.77Z"/><path class="cls-6" d="M11.77,284.05c2.4-1.18,5.19-2.32,7.47-3.87,.86-.59,1.75-1.15,2.64-1.7,2.15-1.33,4.34-2.59,6.56-3.8,1.36-.74,2.57-1.52,3.7-2.56,.77-.71,1.62-1.3,2.55-1.78,1.06-.55,2.22-.98,3.32-1.45,.83-.36,1.54-.84,2.31-1.3,1.39-.81,3.09-1.28,4.59-1.79,1.82-.62,3.49-.78,5.43-.9,2.3-.14,4.16,.39,6.35,.98,1.33,.36,2.33,.98,3.47,1.72,.5,.33,.79,.48,1.39,.49,.55,0,1.26-.14,2.14,.15,1.32,.63,2.92,.76,4.38,.8,2.1,.05,4.23-.2,6.34-.26,1.78-.05,3.56-.05,5.34-.15,1.3-.08,2.48-.29,3.72-.68,1.43-.45,2.65-1.3,3.88-2.14,.91-.62,1.6-1.47,2.41-2.2,1.28-1.15,2.79-1.99,4.09-3.12,.71-.62,1.42-1.24,2.14-1.84,1.58-1.33,2.79-2.85,3.87-4.6,.73-1.17,1.4-2.33,1.97-3.58,.67-1.48,1.43-2.93,1.97-4.46,.39-1.12,.67-2.28,.84-3.45,.23-1.58,.34-2.89,1.13-4.3,.85-1.52,1.94-3.31,3.5-4.18s3.73-1.64,5.32-.41c1.16,.89,2.14,2.35,2.77,3.66,.84,1.75,.11,3.8-.08,5.62s-.45,3.56-.92,5.43c-.33,1.29-.46,2.62-.74,3.92-.43,2-1.24,3.9-1.69,5.9-.28,1.24-.48,2.5-.8,3.73-.67,2.55-2.01,4.81-3.35,7.06-.84,1.4-1.62,2.9-2.59,4.22-1.31,1.78-2.69,3.6-4.14,5.28-2.13,2.46-4.52,4.8-6.84,7.08-1.84,1.81-3.71,3.58-5.59,5.35-1.67,1.57-3.23,3.4-4.61,5.24-1.06,1.42-1.83,3.04-2.58,4.64s-1.45,3.25-2.08,4.91c-.53,1.38-.82,2.77-1.1,4.22-.08,.42-.14,.84-.24,1.26-.04,.19-.33,.74-.21,.87"/><g><path class="cls-6" d="M79.75,311.39c-.42,2.13-.8,4.16-.88,6.32-.06,1.55-.12,3.11-.15,4.67-.04,1.73-.04,3.47,.11,5.19s.11,3.37,.17,5.07c.09,2.54,.72,5.08,1.19,7.57,.75,3.98,2.04,7.93,3.26,11.79s2.64,8.08,3.74,12.16c.61,2.23,1.38,4.36,2.3,6.48,1.04,2.4,1.88,4.88,2.66,7.38,1.44,4.56,2.53,9.2,4.11,13.72,.39,1.12,.84,2.16,1.12,3.32,.21,.83,.35,1.71-.28,2.4-.44,.49-1.23,.8-1.82,1.06-.9,.4-1.87,.73-2.79,1.05-1.83,.63-3.7,1.12-5.56,1.66-3.66,1.08-7.39,1.86-11.19,2.28-2.08,.23-4.06,.61-6.1,1.12-1.75,.44-3.53,.93-5.24,1.49s-3.26,1.28-4.94,1.75c-2.86,.79-5.81,1.48-8.72,2.03-3.62,.69-7.28,1.15-10.97,.85-2.32-.18-4.68-.33-6.94-.89-1.66-.41-3.27-.97-4.95-1.32-.66-.14-1.89-.2-2.4-.65-.63-.56-.78-1.13-.85-1.99-.2-2.45-.07-4.96-.08-7.42-.01-2.98-.26-5.93-.53-8.89s-.37-5.73-.51-8.59c-.26-5.17-.46-10.37-.97-15.53-.15-1.52-.46-2.98-.71-4.48-.36-2.09-.54-4.21-.61-6.33-.1-3.14,.38-6.37,.62-9.5,.21-2.87,.76-5.71,1.18-8.56s.74-5.87,.97-8.81c.28-3.49,.95-7.21,.14-10.67-.36-1.52-.92-2.91-1.73-4.24-.41-.66-.82-1.32-1.23-1.98-.2-.32-.62-.79-.61-1.18,.73,.28,.58,1.71,.57,2.31-.02,1.78,.25,3.43,.68,5.14,.23,.93,.17,1.83,.18,2.78,.02,1.17,.29,2.32,.39,3.48,.2,2.46,.06,4.95,.08,7.42,.01,2.02,.34,4.05,.16,6.06-.1,1.19-.35,2.35-.53,3.52-.21,1.34-.32,2.69-.53,4.02-.23,1.51-.62,2.98-.64,4.52-.02,1.41,.06,2.82,.1,4.22,.05,1.67,.1,3.35-.09,5.01-.26,2.18-.47,4.34-.6,6.54-.1,1.64-.15,3.27-.13,4.9,.01,1.25,.21,2.75-.15,3.97-.42,1.43-2.62,1.68-3.81,2.03-1.79,.52-3.58,1.08-5.36,1.64-.68,.22-1.33,.54-2,.18-.5-.27-.73-.72-.99-1.22-.9-1.71-1.33-3.64-1.53-5.54-.22-2.16-.38-4.31-.72-6.46-.29-1.85-.22-3.72-.23-5.58-.05-5.62-.34-11.24-.31-16.86,0-1.33-.01-2.66-.09-3.99-.08-1.44-.33-2.88-.37-4.32-.09-3.23,.66-6.48,1.19-9.65,.9-5.47,1.37-10.98,1.41-16.53,.02-3.7,.21-7.38,.85-11.04,.3-1.71,.77-3.39,1.01-5.11,.16-1.14,.27-2.29,.68-3.38,.31-.83,.64-1.88,1.23-2.56,.39-.46,.9-.84,1.32-1.26,.39-.39,.47-.6,1.14-.47"/><path class="cls-1" d="M79.75,311.39c-.42,2.13-.8,4.16-.88,6.32-.06,1.55-.12,3.11-.15,4.67-.04,1.73-.04,3.47,.11,5.19s.11,3.37,.17,5.07c.09,2.54,.72,5.08,1.19,7.57,.75,3.98,2.04,7.93,3.26,11.79s2.64,8.08,3.74,12.16c.61,2.23,1.38,4.36,2.3,6.48,1.04,2.4,1.88,4.88,2.66,7.38,1.44,4.56,2.53,9.2,4.11,13.72,.39,1.12,.84,2.16,1.12,3.32,.21,.83,.35,1.71-.28,2.4-.44,.49-1.23,.8-1.82,1.06-.9,.4-1.87,.73-2.79,1.05-1.83,.63-3.7,1.12-5.56,1.66-3.66,1.08-7.39,1.86-11.19,2.28-2.08,.23-4.06,.61-6.1,1.12-1.75,.44-3.53,.93-5.24,1.49s-3.26,1.28-4.94,1.75c-2.86,.79-5.81,1.48-8.72,2.03-3.62,.69-7.28,1.15-10.97,.85-2.32-.18-4.68-.33-6.94-.89-1.66-.41-3.27-.97-4.95-1.32-.66-.14-1.89-.2-2.4-.65-.63-.56-.78-1.13-.85-1.99-.2-2.45-.07-4.96-.08-7.42-.01-2.98-.26-5.93-.53-8.89s-.37-5.73-.51-8.59c-.26-5.17-.46-10.37-.97-15.53-.15-1.52-.46-2.98-.71-4.48-.36-2.09-.54-4.21-.61-6.33-.1-3.14,.38-6.37,.62-9.5,.21-2.87,.76-5.71,1.18-8.56s.74-5.87,.97-8.81c.28-3.49,.95-7.21,.14-10.67-.36-1.52-.92-2.91-1.73-4.24-.41-.66-.82-1.32-1.23-1.98-.2-.32-.62-.79-.61-1.18,.73,.28,.58,1.71,.57,2.31-.02,1.78,.25,3.43,.68,5.14,.23,.93,.17,1.83,.18,2.78,.02,1.17,.29,2.32,.39,3.48,.2,2.46,.06,4.95,.08,7.42,.01,2.02,.34,4.05,.16,6.06-.1,1.19-.35,2.35-.53,3.52-.21,1.34-.32,2.69-.53,4.02-.23,1.51-.62,2.98-.64,4.52-.02,1.41,.06,2.82,.1,4.22,.05,1.67,.1,3.35-.09,5.01-.26,2.18-.47,4.34-.6,6.54-.1,1.64-.15,3.27-.13,4.9,.01,1.25,.21,2.75-.15,3.97-.42,1.43-2.62,1.68-3.81,2.03-1.79,.52-3.58,1.08-5.36,1.64-.68,.22-1.33,.54-2,.18-.5-.27-.73-.72-.99-1.22-.9-1.71-1.33-3.64-1.53-5.54-.22-2.16-.38-4.31-.72-6.46-.29-1.85-.22-3.72-.23-5.58-.05-5.62-.34-11.24-.31-16.86,0-1.33-.01-2.66-.09-3.99-.08-1.44-.33-2.88-.37-4.32-.09-3.23,.66-6.48,1.19-9.65,.9-5.47,1.37-10.98,1.41-16.53,.02-3.7,.21-7.38,.85-11.04,.3-1.71,.77-3.39,1.01-5.11,.16-1.14,.27-2.29,.68-3.38,.31-.83,.64-1.88,1.23-2.56,.39-.46,.9-.84,1.32-1.26,.39-.39,.47-.6,1.14-.47"/></g><path class="cls-8" d="M53.23,229.48c1.11,.98,2.5,2.01,3.25,3.34,.43,.76,.21,1.49,.32,2.28,.06,.41,.65,.85,.96,1.18,.23,.25,.39,.52,.6,.79,.23,.29,.51,.41,.82,.61,.9,.59,1.23,1.32,1.48,2.32,.27,1.07,.92,2.05,1.38,3.04,.72,1.56,.41,3.15,.33,4.8-.04,.78,.23,1.33,.49,2.06,.36,1,.69,1.94,1.24,2.86,.59,1.01,.41,2.16,.12,3.26-.32,1.18-.78,2.41-1.35,3.5-.26,.5-.62,.93-.91,1.41-.28,.45-.46,.9-.8,1.31-.59,.73-.97,1.62-1.59,2.31-.46,.51-.55,.94-.54,1.64,.01,.81-.28,.79-1,.58-.44-.13-.9-.25-1.36-.3-.81-.09-1.6-.27-2.42-.37-1.18-.14-2.39-.17-3.57-.37-.36-.06-.68-.24-1.03-.32-.3-.07-.59-.04-.89-.06-.44-.03-1.01-.18-1.41-.33,0-.09,.07-.1,.19-.06"/><path class="cls-7" d="M47.29,264.96c1.4-.43,2.91-.46,3.57-1.92,.2-.43,.47-.71,.73-1.09,.34-.51,.48-1.01,.64-1.59s.41-1.1,.46-1.72c.05-.75,.23-1.49,.23-2.24,.02-1.71,.72-3.36,1.63-4.8,.42-.66,1.02-1.16,1.63-1.63,.25-.19,.54-.41,.76-.64,.2-.21,.28-.48,.42-.74,.35-.62,.39-.94,.47-1.66,.04-.39,.14-.82,.07-1.21s-.28-.77-.38-1.15c-.15-.57-.36-1.19-.77-1.63-.24-.26-.55-.45-.79-.73-.28-.33-.39-.75-.64-1.08-.32-.42-.93-.45-1.26-.87-.44-.57-.49-1.25-.57-1.94-.11-.95-.08-1.96-.06-2.91,.02-.76,.41-1.46,.59-2.19,.21-.81,.2-1.63-.19-2.37-.15-.28-.25-.54-.31-.84-.04-.18,0-.38-.16-.52,.21-.24,.47-.4,.78-.49"/><path class="cls-12" d="M39.13,268.24c-.14-1.8-.06-3.44-.92-4.99-.51-.91-1.24-1.89-1.87-2.73-.77-1.01-1.61-1.99-2.44-2.95-1.23-1.41-2.59-2.46-3.19-4.28-.67-2-1.08-4.1-1.33-6.19-.27-2.29-.29-5.07,.54-7.24,.98-2.58,3.47-4.47,5.29-6.44,.98-1.06,1.95-1.89,3.24-2.57,2.02-1.07,4.14-2.3,6.41-2.73,1.58-.3,3.42-.74,5.03-.46,1.15,.2,2.74,1.01,3.49,1.98,.64,.82,.82,2.07,.93,3.08,.13,1.13-.27,2.01-.85,3.33,.22,1.08,.35,2.73,1.05,3.73,.3,.43,.66,.83,1.04,1.18,.62,.58,1.29,1.16,1.69,1.92,.44,.85,.63,1.97,.83,2.9,.18,.83,.24,1.68-.17,2.45-.38,.72-1.1,1.12-1.72,1.61-.81,.63-1.28,1.23-1.65,2.22s-.68,1.93-.92,2.9c-.32,1.31-.14,2.7-.36,4.03-.37,2.27-1.08,4.24-3.05,5.58-.81,.55-1.77,.43-2.66,.75-1.15,.4-2.2,.6-3.39,.84-1.3,.27-2.3,1.28-3.57,1.56-.58,.12-1.42,.27-1.99,.07,.24-.18,.5-.32,.56,.44Z"/><path class="cls-2" d="M60.49,258.5h-.02"/><path class="cls-2" d="M96.39,216.84s-.09-.05-.13-.07"/><path class="cls-10" d="M122.23,204.31c-.41,.31-.72,.69-1,1.1-.08,.08-.16,.16-.23,.24-.13,.1-.27,.28-.39,.51-.23,.31-.4,.65-.43,.82-.33,.71-.56,1.49-.72,2.15-.68,1.54-1.21,3.07-1.83,4.12-1.39,2-.91-.09-1.17-1.7-.24-1.41-.7-1.83-1.24-1.72,.01-.03,.03-.06,.05-.09-.03,.03-.05,.06-.08,.09-.1,.02-.2,.08-.31,.13-.43-.03-.84,.47-1.21,1.18-.45,.59-.85,1.25-1.13,1.73,.05-.05,.1-.1,.16-.16-.39,.51-.75,1.04-1.03,1.62-1.26,2.42-1.73,5.19-1.54,7.91,.2,3.51,.52,7.77,.44,11.99,.04-.22,.07-.44,.11-.65,0,.23,.04,.45,.1,.65-.11,1.03,.36,3.32,1.54,2.36,.27,.22,.63,.34,1.07,.32,.63-.15,.96-.87,1.2-1.42,.07-.17,.13-.34,.2-.51,.09,.06,.18,.08,.27,.07,.01,.21,.03,.43,.05,.64,.31,.79,.65,.92,.95,.73,.04,0,.08,0,.13-.02,.02-.04,.03-.09,.04-.13,.12-.14,.23-.32,.32-.53,.04-.02,.08-.04,.13-.08,0-.01,.01-.03,.02-.04h.01c.07,1.09,.13,2.18,.21,3.27,.02-.31,.04-.63,.06-.94,.08,.81,.18,1.61,.3,2.4-.12-4.34,.47-9.11,1.74-12.27,1.53-3.41,3.74-6.6,3.94-10.45,.05-.41,.05-.84,.03-1.27,.6-2.24,.97-4.53,1.06-6.85,.14-.72,.26-1.44,.37-2.17,.35-1.55-.08-4.26-2.22-3.04Z"/><path class="cls-3" d="M21.65,389.53c-.2-5.63,.11-11.37-1.75-16.79,.49,6.1-.02,10.93,1.6,16.81,.21,.67,.24,.83,.15-.02Z"/><g class="cls-4"><path class="cls-11" d="M13.99,384.57c-.14-.05-.52-.05-.93-.03,.27-.8,.83-1.5,1.77-1.98-1.19,.34-1.86,1.08-2.18,2.01-.66,.05-1.17,.15-.5,.18,.15,0,.29,.02,.43,.04-.51,1.86,.26,4.36,1.17,5.94,.53,.99,1.92,2.99,3.03,1.59,1.67-2.39,.18-7.12-2.79-7.76Zm2.45,5.76c-.73,1.98-2.69-1.39-3.04-2.22-.49-1.09-.68-2.23-.44-3.24,2.3,.56,3.75,3.14,3.48,5.46Z"/></g><path class="cls-3" d="M3.86,379.74c-.32,.05-.61,.2-.87,.39-.28,.09-.54,.22-.77,.42-3.06,1.01-2.95,9.4,.29,9.9,.38-.06,.71-.24,1-.49,.2-.07,.39-.17,.56-.29,3.14-.9,3.05-9.42-.22-9.93Z"/><path class="cls-2" d="M7.11,383.87s-.08,0-.12,0"/><path class="cls-2" d="M12.3,383.64s-.06,0-.09-.01"/><path class="cls-2" d="M14.5,383.83s-.04,0-.06,0"/><path class="cls-9" d="M19.82,374.05c.1,.58,.2,1.15,.31,1.73,.07,.35,.13,.72,.27,1.05,.08,.2,.21,.37,.31,.56,.13,.25,.21,.52,.31,.78,.12,.34,.31,.64,.43,.97,.14,.37,.22,.77,.3,1.16,.14,.76,.23,1.53,.29,2.3,.04,.49,.01,.98,.06,1.47,.06,.6,.25,1.21,.25,1.81,0,.54-.2,1.29-.64,1.64-.54,.43-1.14-.3-1.39-.69-.22-.35-.39-.73-.64-1.06-.16-.21-.34-.39-.5-.61-.39-.55-.62-1.18-1-1.74-.17-.25-.43-.68-.8-.67-.43,0-.52,.65-.55,.97-.09,1.03,.44,1.88,.89,2.75,.14,.28,.24,.53,.5,.74s.51,.34,.76,.54c.52,.43,.85,.99,1.31,1.46,.22,.22,.49,.4,.7,.64,.37,.41,.45,.94,.52,1.46s.16,1.02,.16,1.51c0,.21,.03,.63-.11,.81-.22,.29-.71,.27-1.05,.27-.54,0-1.12,0-1.66-.08-.72-.11-1.34-.36-1.97-.72-.51-.29-1.04-.53-1.54-.82-.66-.38-1.24-.85-1.78-1.37-.31-.3-.6-.62-.93-.9-.23-.19-.47-.37-.69-.58-.55-.52-.95-1.17-1.47-1.73s-.59-1.55-.69-2.24c-.11-.8-.13-1.61-.14-2.42-.01-1.73-.1-3.45,.08-5.18,.03-.27,.05-.58,.22-.81,.29-.37,.97-.51,1.39-.66,1.43-.5,2.83-1.07,4.27-1.55,.51-.17,1.06-.38,1.61-.42,.3-.02,.58-.06,.87-.16,.31-.11,.59-.22,.85-.43,.1-.08,.26-.23,.39-.26,.21-.04,.34,.27,.41,.45,.03,.09,.02,.18,.05,.28,.04,.1,.13,.2,.17,.31-.04,.01-.06,.01-.1,0,0-.01,.02-.02-.01-.55Z"/></g></g></svg>